<svg xmlns="http://www.w3.org/2000/svg" width="121.95" height="60" viewBox="0 0 121.95 60">
    <defs>
        <style>.a{fill:#f1f1f1;}</style>
    </defs>
    <path class="a" d="M19.021,33.8l-1.783-3.567h-.19a10.589,10.589,0,0,1-3.828,3.186,12.642,12.642,0,0,1-5.041.856A7.907,7.907,0,0,1,2.187,32,8.9,8.9,0,0,1,0,25.576a7.272,7.272,0,0,1,3-6.4q3-2.116,8.678-2.378l4.494-.143v-.38q0-3.329-3.281-3.329a19.624,19.624,0,0,0-7.49,2L2.711,8.813A25.842,25.842,0,0,1,14.6,6.388q5.183,0,8.013,2.568a9.164,9.164,0,0,1,2.853,7.181V33.8Zm-6.9-6.087A4.149,4.149,0,0,0,15,26.646a3.536,3.536,0,0,0,1.213-2.782V21.771l-2.14.1q-4.589.166-4.589,3.376Q9.487,27.715,12.126,27.715Z" transform="translate(0 3.194)"/>
    <path class="a" d="M30.489,37h-9.3V0h9.3Z" transform="translate(10.596)"/>
    <path class="a" d="M64.759,33.8V19.156A8.6,8.6,0,0,0,64,15.066a2.481,2.481,0,0,0-2.354-1.379,3.331,3.331,0,0,0-3.138,1.831,12.484,12.484,0,0,0-1,5.73V33.8h-9.32V19.156a9.09,9.09,0,0,0-.713-4.089,2.412,2.412,0,0,0-2.306-1.379,3.341,3.341,0,0,0-3.186,1.95q-1,1.95-1,6.372V33.8h-9.3V6.863H38.7l1.165,3.329h.547A6.96,6.96,0,0,1,43.5,7.363a10.644,10.644,0,0,1,4.636-.975q5.825,0,8.179,3.543h.737a7.547,7.547,0,0,1,3.162-2.592,10.524,10.524,0,0,1,4.494-.951q4.779,0,7.062,2.449t2.283,7.442V33.8Z" transform="translate(15.843 3.194)"/>
    <path class="a" d="M90.264,20.273q0,6.61-3.567,10.319-3.543,3.685-9.939,3.685a12.93,12.93,0,0,1-9.772-3.78q-3.614-3.78-3.614-10.224,0-6.586,3.543-10.224Q70.481,6.388,76.9,6.388a14.22,14.22,0,0,1,7.014,1.688,11.434,11.434,0,0,1,4.684,4.85A15.46,15.46,0,0,1,90.264,20.273Zm-17.452,0a12.046,12.046,0,0,0,.927,5.3,3.226,3.226,0,0,0,3.115,1.807A3.11,3.11,0,0,0,79.9,25.576a12.323,12.323,0,0,0,.9-5.3,11.758,11.758,0,0,0-.9-5.207,3.574,3.574,0,0,0-6.158,0A11.4,11.4,0,0,0,72.812,20.273Z" transform="translate(31.686 3.194)"/>
    <path class="a" d="M47.62,43.406a4.34,4.34,0,0,1-3.406-1.3,5.49,5.49,0,0,1-1.159-3.754,5.5,5.5,0,0,1,1.213-3.825,4.529,4.529,0,0,1,3.522-1.337,6.592,6.592,0,0,1,2.809.58l-.633,1.685a6.347,6.347,0,0,0-2.193-.517q-2.559,0-2.559,3.4a4.11,4.11,0,0,0,.633,2.5,2.224,2.224,0,0,0,1.872.829,5.359,5.359,0,0,0,2.648-.7v1.828a4.134,4.134,0,0,1-1.2.472A7.132,7.132,0,0,1,47.62,43.406Z" transform="translate(21.528 16.594)"/>
    <path class="a" d="M62.192,38.279a5.382,5.382,0,0,1-1.239,3.772A4.441,4.441,0,0,1,57.5,43.406a4.728,4.728,0,0,1-2.443-.624,4.12,4.12,0,0,1-1.632-1.792,6.1,6.1,0,0,1-.571-2.711,5.346,5.346,0,0,1,1.23-3.745,4.461,4.461,0,0,1,3.468-1.346,4.337,4.337,0,0,1,3.388,1.382A5.3,5.3,0,0,1,62.192,38.279Zm-7.178,0q0,3.415,2.523,3.415,2.5,0,2.5-3.415,0-3.379-2.514-3.379a2.156,2.156,0,0,0-1.917.874A4.474,4.474,0,0,0,55.014,38.279Z" transform="translate(26.428 16.594)"/>
    <path class="a" d="M67.987,44.684a3.435,3.435,0,0,1-2.88-1.337,6.011,6.011,0,0,1-1.034-3.754,6.03,6.03,0,0,1,1.043-3.772,3.476,3.476,0,0,1,2.907-1.355,3.4,3.4,0,0,1,2.96,1.436h.107a12.546,12.546,0,0,1-.152-1.676V30.632h2.1V44.506H71.4l-.366-1.293h-.1A3.35,3.35,0,0,1,67.987,44.684Zm.562-1.694a2.288,2.288,0,0,0,1.881-.722,3.846,3.846,0,0,0,.606-2.363v-.294a4.42,4.42,0,0,0-.606-2.648,2.249,2.249,0,0,0-1.9-.785,1.924,1.924,0,0,0-1.7.9,4.569,4.569,0,0,0-.6,2.55,4.5,4.5,0,0,0,.579,2.505A1.96,1.96,0,0,0,68.548,42.99Z" transform="translate(32.036 15.316)"/>
    <path class="a" d="M80.326,43.406a4.794,4.794,0,0,1-3.6-1.337,5.121,5.121,0,0,1-1.293-3.7,5.589,5.589,0,0,1,1.2-3.8,4.157,4.157,0,0,1,3.308-1.382,4.064,4.064,0,0,1,3.085,1.186,4.531,4.531,0,0,1,1.132,3.263V38.77H77.589a3.257,3.257,0,0,0,.776,2.211,2.711,2.711,0,0,0,2.06.767,7.744,7.744,0,0,0,1.623-.16,8.742,8.742,0,0,0,1.623-.553v1.7a6.428,6.428,0,0,1-1.551.517A9.509,9.509,0,0,1,80.326,43.406Zm-.383-8.631a2.12,2.12,0,0,0-1.6.633,3.034,3.034,0,0,0-.713,1.846H82.1a2.712,2.712,0,0,0-.588-1.846A2.006,2.006,0,0,0,79.942,34.775Z" transform="translate(37.715 16.594)"/>
</svg>